<svg width="1100" height="1100" viewBox="0 0 1100 1100" fill="none" xmlns="http://www.w3.org/2000/svg">
<circle r="535" transform="matrix(-1 -8.74228e-08 -8.74228e-08 1 550 550)" fill="white" stroke="black" stroke-width="30"/>
<path d="M779 374.001L314 374.001L314 838.001L779 838.001L779 374.001Z" fill="#FCCA8A"/>
<path fill-rule="evenodd" clip-rule="evenodd" d="M759.823 351.998C770.985 354.922 778.497 359.375 787.562 368.439C796.75 377.628 801.105 385.058 804.05 396.572C806.548 406.341 806.563 416.553 804.093 426.21C802.156 433.783 797.777 443.359 794.171 447.906L792.244 450.337L795.606 455.406C802.074 465.159 806.026 478.302 806 489.976C805.977 500.454 800.589 516.615 794.422 524.7L791.923 527.976L794.422 531.252C800.848 539.677 805.99 555.557 805.99 566.976C805.99 578.395 800.848 594.275 794.422 602.7L791.923 605.976L794.422 609.252C800.848 617.677 805.99 633.557 805.99 644.976C805.99 656.395 800.848 672.275 794.422 680.7L791.923 683.976L794.422 687.252C800.589 695.337 805.977 711.498 806 721.976C806.026 733.639 802.074 746.793 795.622 756.522L792.276 761.568L794.261 764.019C797.739 768.314 802.1 777.95 804.093 785.742C807.72 799.924 805.776 816.032 798.836 829.29C794.55 837.478 781.527 850.501 773.339 854.787C760.081 861.727 743.973 863.671 729.791 860.044C721.999 858.051 712.363 853.69 708.068 850.212L705.617 848.227L700.571 851.573C680.555 864.847 653.275 864.99 633.706 851.922L627.842 848.006L623.402 851.061C613.666 857.759 600.453 861.941 589.025 861.941C577.606 861.941 561.726 856.799 553.301 850.373L550.025 847.874L546.749 850.373C538.324 856.799 522.444 861.941 511.025 861.941C499.606 861.941 483.726 856.799 475.301 850.373L472.025 847.874L468.749 850.373C460.664 856.54 444.503 861.928 434.025 861.951C422.371 861.976 409.208 858.025 399.499 851.586L394.474 848.253L390.999 850.683C376.351 860.926 357.715 864.373 340.621 860.001C329.146 857.066 321.68 852.698 312.441 843.513C303.494 834.618 298.116 825.402 295.942 815.242C295.264 812.071 294.33 809.048 293.867 808.526C292.875 807.406 292.709 790.327 293.7 791.318C294.071 791.689 295.162 788.894 296.124 785.107C297.897 778.125 302.366 768.475 305.879 764.046L307.806 761.615L304.444 756.546C300.051 749.921 296.045 739.942 295.319 733.811C295 731.12 294.354 728.679 293.882 728.388C293.411 728.096 293.025 724.885 293.025 721.25C293.025 717.616 293.342 714.96 293.73 715.348C294.118 715.736 295.001 713.282 295.692 709.896C297.088 703.051 301.822 692.242 305.583 687.311L308.037 684.094L305.039 679.652C300.72 673.253 297.228 665.302 295.957 658.976C295.35 655.951 294.441 652.695 293.939 651.74C292.876 649.719 292.681 636.299 293.73 637.348C294.118 637.736 295.001 635.282 295.692 631.896C297.094 625.02 301.827 614.236 305.628 609.252L308.127 605.976L305.65 602.726C301.934 597.849 297.224 587.298 295.967 581.032C295.354 577.976 294.441 574.695 293.939 573.74C292.876 571.719 292.681 558.299 293.73 559.348C294.118 559.736 294.994 557.317 295.676 553.973C297.095 547.015 300.618 538.85 305.008 532.346L308.037 527.858L305.605 524.667C301.929 519.843 297.218 509.268 295.967 503.032C295.354 499.976 294.441 496.695 293.939 495.74C292.778 493.533 292.733 481.678 293.889 482.392C294.364 482.685 295.01 480.748 295.326 478.086C296.046 472.005 300.064 462.01 304.444 455.406L307.806 450.337L305.851 447.906C302.547 443.797 297.172 432.004 295.908 426.091C295.248 423.003 294.33 420.049 293.867 419.526C292.875 418.406 292.709 401.327 293.7 402.318C294.071 402.689 295.181 399.817 296.167 395.936C298.918 385.104 303.437 377.491 312.488 368.439C321.677 359.251 329.107 354.896 340.621 351.951C357.715 347.579 376.351 351.026 390.999 361.269L394.474 363.699L399.499 360.366C409.208 353.927 422.371 349.976 434.025 350.001C444.503 350.024 460.664 355.412 468.749 361.579L472.025 364.078L475.301 361.579C483.726 355.153 499.606 350.011 511.025 350.011C522.444 350.011 538.324 355.153 546.749 361.579L550.025 364.078L553.301 361.579C561.726 355.153 577.606 350.011 589.025 350.011C600.453 350.011 613.666 354.193 623.402 360.891L627.842 363.946L633.706 360.03C653.275 346.962 680.555 347.105 700.571 360.379L705.617 363.725L708.068 361.74C712.363 358.262 721.999 353.901 729.791 351.908C739.317 349.472 750.306 349.505 759.823 351.998ZM751.525 380.845C760.744 383.263 768.855 389.924 772.992 398.476C774.925 402.474 775.413 405.08 775.425 411.476C775.446 422.174 773.151 427.129 764.154 435.81C756.268 443.42 755.025 445.414 755.025 450.46C755.025 455.56 757.141 459.066 763.494 464.494C775.089 474.399 778.787 489.767 772.613 502.385C770.8 506.09 767.734 509.871 763.526 513.588C756.094 520.154 754.594 523.143 755.26 530.068C755.722 534.878 756.156 535.529 763.744 542.807C773.124 551.802 775.525 557.041 775.378 568.196C775.256 577.417 771.824 584.288 763.869 591.236C756.829 597.384 755.025 600.392 755.025 605.976C755.025 611.56 756.829 614.568 763.869 620.716C771.824 627.664 775.256 634.535 775.378 643.756C775.525 654.911 773.124 660.15 763.744 669.145C756.156 676.423 755.722 677.074 755.26 681.884C754.594 688.809 756.094 691.798 763.526 698.364C767.734 702.081 770.8 705.862 772.613 709.567C778.787 722.185 775.089 737.553 763.494 747.458C757.146 752.882 755.025 756.392 755.025 761.476C755.025 766.618 757.1 769.977 763.935 775.898C772.449 783.274 775.533 789.849 775.463 800.476C775.4 809.969 772.898 816.15 766.549 822.5C760.199 828.849 754.018 831.351 744.525 831.414C733.898 831.484 727.323 828.4 719.947 819.886C714.026 813.051 710.667 810.976 705.525 810.976C700.441 810.976 696.931 813.097 691.507 819.445C684.742 827.364 676.448 831.309 666.566 831.309C656.577 831.309 650.034 828.104 642.413 819.477C635.813 812.006 632.871 810.544 625.805 811.223C620.873 811.697 620.273 812.084 614.066 818.793C606.87 826.571 602.404 829.34 594.357 831.011C583.501 833.265 572.651 829.059 564.318 819.368C558.659 812.786 555.576 810.976 550.025 810.976C544.474 810.976 541.391 812.786 535.732 819.368C529.987 826.05 524.519 829.39 516.755 830.959C510.746 832.174 507.894 831.894 499.525 829.264C495.512 828.003 493.012 826.115 486.856 819.695C479.578 812.107 478.927 811.673 474.117 811.211C467.192 810.545 464.203 812.045 457.637 819.477C453.916 823.689 450.14 826.751 446.425 828.569C433.883 834.705 418.392 830.974 408.543 819.445C403.119 813.097 399.609 810.976 394.525 810.976C389.409 810.976 386.027 813.048 380.24 819.728C376.966 823.508 373.119 826.614 369.351 828.522C364.298 831.081 362.464 831.465 355.525 831.417C346.032 831.351 339.849 828.847 333.501 822.5C327.152 816.15 324.65 809.969 324.587 800.476C324.517 789.838 327.636 783.191 336.189 775.752C343.057 769.778 345.025 766.599 345.025 761.476C345.025 756.405 342.991 753.044 336.634 747.613C328.698 740.834 324.692 732.414 324.692 722.517C324.692 712.528 327.897 705.985 336.524 698.364C343.995 691.764 345.457 688.822 344.778 681.756C344.304 676.824 343.917 676.224 337.208 670.017C329.43 662.821 326.661 658.355 324.99 650.308C322.736 639.452 326.942 628.602 336.633 620.269C343.215 614.61 345.025 611.527 345.025 605.976C345.025 600.425 343.215 597.342 336.633 591.683C329.951 585.938 326.611 580.47 325.042 572.706C323.827 566.697 324.107 563.845 326.737 555.476C327.998 551.463 329.886 548.963 336.306 542.807C343.894 535.529 344.328 534.878 344.79 530.068C345.456 523.143 343.956 520.154 336.524 513.588C332.316 509.871 329.25 506.09 327.437 502.385C321.256 489.753 324.996 474.281 336.634 464.339C342.991 458.908 345.025 455.547 345.025 450.476C345.025 445.353 343.057 442.174 336.189 436.2C327.636 428.761 324.517 422.114 324.587 411.476C324.65 401.983 327.152 395.802 333.501 389.452C339.851 383.103 346.032 380.601 355.525 380.538C366.152 380.468 372.727 383.552 380.103 392.066C386.024 398.901 389.383 400.976 394.525 400.976C399.609 400.976 403.119 398.855 408.543 392.507C418.448 380.912 433.816 377.214 446.434 383.388C450.139 385.201 453.92 388.267 457.637 392.475C464.203 399.907 467.192 401.407 474.117 400.741C478.927 400.279 479.578 399.845 486.856 392.257C495.851 382.877 501.09 380.476 512.245 380.623C521.466 380.745 528.337 384.177 535.285 392.132C541.433 399.172 544.441 400.976 550.025 400.976C555.576 400.976 558.659 399.166 564.318 392.584C572.651 382.893 583.501 378.687 594.357 380.941C602.404 382.612 606.87 385.381 614.066 393.159C620.273 399.868 620.873 400.255 625.805 400.729C632.871 401.408 635.813 399.946 642.413 392.475C646.13 388.267 649.911 385.201 653.616 383.388C666.234 377.214 681.602 380.912 691.507 392.507C696.931 398.855 700.441 400.976 705.525 400.976C710.667 400.976 714.026 398.901 719.947 392.066C726.423 384.59 733.077 381.112 742.074 380.498C745.622 380.256 749.875 380.412 751.525 380.845ZM805.67 411.476C805.673 416.426 805.504 418.577 805.294 416.256C805.085 413.935 805.082 409.885 805.289 407.256C805.495 404.627 805.667 406.526 805.67 411.476ZM677.005 472.728C687.71 478.106 687.71 493.846 677.005 499.224C669.45 503.02 661.076 500.353 657.275 492.94C654.504 487.537 654.453 484.789 657.025 479.476C660.643 472.003 669.565 468.99 677.005 472.728ZM556.807 472.639C562.033 475.215 564.525 479.546 564.525 486.054C564.525 490.593 564.015 492.301 561.786 495.223C552.832 506.962 533.62 499.137 535.278 484.426C536.461 473.929 547.34 467.973 556.807 472.639ZM437.005 472.671C450.501 479.67 445.729 500.958 430.661 500.972C421.886 500.981 414.05 492.373 415.379 484.185C416.993 474.236 428.356 468.186 437.005 472.671ZM805.697 489.476C805.692 493.326 805.512 494.778 805.295 492.704C805.079 490.629 805.082 487.479 805.303 485.704C805.524 483.928 805.701 485.626 805.697 489.476ZM805.689 566.976C805.689 571.101 805.512 572.789 805.297 570.726C805.081 568.664 805.081 565.289 805.297 563.226C805.512 561.164 805.689 562.851 805.689 566.976ZM677.005 592.728C690.746 599.631 685.576 620.967 670.161 620.974C662.852 620.978 655.025 613.222 655.025 605.976C655.025 601.624 658.817 595.461 662.911 593.16C667.603 590.523 672.329 590.378 677.005 592.728ZM556.807 592.582C569.926 599.275 566.247 619.07 551.575 620.723C540.102 622.016 531.577 610.043 536.534 599.598C540.003 592.288 549.671 588.942 556.807 592.582ZM437.005 592.728C450.886 599.702 445.554 620.968 429.923 620.974C422.495 620.978 415.525 613.717 415.525 605.976C415.525 594.956 427.159 587.781 437.005 592.728ZM805.689 644.976C805.689 649.101 805.512 650.789 805.297 648.726C805.081 646.664 805.081 643.289 805.297 641.226C805.512 639.164 805.689 640.851 805.689 644.976ZM677.005 712.728C687.719 718.11 687.739 733.439 677.041 739.124C669.722 743.013 660.671 740.007 657.025 732.476C654.453 727.163 654.504 724.415 657.275 719.012C661.076 711.599 669.45 708.932 677.005 712.728ZM556.954 712.728C561.731 715.163 564.232 719.001 564.726 724.652C565.265 730.812 562.748 735.655 557.421 738.71C546.948 744.714 534.267 736.769 535.304 724.854C536.26 713.882 547.2 707.754 556.954 712.728ZM437.784 712.971C451.196 721.148 444.629 742.216 429.161 740.641C418.532 739.558 412.383 729.065 416.905 719.725C420.722 711.839 430.657 708.625 437.784 712.971ZM805.697 722.476C805.692 726.326 805.512 727.778 805.295 725.704C805.079 723.629 805.082 720.479 805.303 718.704C805.524 716.928 805.701 718.626 805.697 722.476ZM805.67 800.476C805.673 805.426 805.504 807.577 805.294 805.256C805.085 802.935 805.082 798.885 805.289 796.256C805.495 793.627 805.667 795.526 805.67 800.476Z" fill="black"/>
<path d="M518.309 375.553L506.781 221.876L452.293 266.705L351.8 218.147L307.573 323.499L236.296 322.014L329.504 445.452L518.309 375.553Z" fill="#FFF500"/>
<path fill-rule="evenodd" clip-rule="evenodd" d="M351.41 199.761C353.842 200.017 364.414 205.521 399.929 225.021C424.905 238.734 446.049 250.375 446.915 250.89L448.491 251.825L477.306 221.678C509.516 187.979 509.517 187.978 516.22 188.899C518.082 189.155 520.854 190.222 522.377 191.27C528.08 195.195 527.454 189.669 533.37 288.204C537.264 353.073 538.508 378.127 537.945 380.377C537.52 382.077 536.169 384.587 534.944 385.955L532.716 388.443L325.771 465.058L322.46 464.621C320.639 464.381 317.98 463.354 316.551 462.341C314.658 461 299.47 441.402 260.633 390.189C231.308 351.519 206.969 319.701 206.546 319.484C205.691 319.044 203.161 312.705 203.994 313.089C204.284 313.221 204.708 311.912 204.937 310.178C205.165 308.445 206.242 305.732 207.33 304.15C209.06 301.634 209.834 301.083 213.505 299.751C217.7 298.23 217.72 298.231 259.186 302.401C299.865 306.493 300.68 306.542 301.203 304.933C301.496 304.031 309.978 281.409 320.052 254.662C339.695 202.513 339.636 202.638 345.515 200.463C347.066 199.889 349.678 199.578 351.41 199.761ZM402.399 257.048C450.143 283.286 450.031 283.235 455.705 281.131C458.95 279.929 460.379 278.55 483.246 254.562C493.808 243.482 502.603 234.487 502.79 234.573C502.977 234.659 504.912 264.608 507.09 301.125L511.049 367.52L328.589 435.07L288.359 382.103C266.232 352.971 248.192 328.997 248.27 328.828C248.348 328.657 261.545 329.817 277.597 331.405C309.511 334.56 311.243 334.654 314.578 333.396C319.979 331.359 320.088 331.125 339.078 280.641C348.931 254.449 357.145 232.895 357.333 232.745C357.521 232.594 377.801 243.53 402.399 257.048ZM527.073 197.568C527.777 199.469 527.947 200.29 527.452 199.393C526.956 198.496 526.38 196.939 526.172 195.936C525.964 194.932 526.369 195.666 527.073 197.568Z" fill="black"/>
</svg>
