<?xml version="1.0" standalone="no"?>
<!DOCTYPE svg PUBLIC "-//W3C//DTD SVG 20010904//EN"
 "http://www.w3.org/TR/2001/REC-SVG-20010904/DTD/svg10.dtd">
<svg version="1.0" xmlns="http://www.w3.org/2000/svg"
 width="512.000000pt" height="512.000000pt" viewBox="0 0 512.000000 512.000000"
 preserveAspectRatio="xMidYMid meet">
<metadata>
Created by potrace 1.14, written by Peter Selinger 2001-2017
</metadata>
<g transform="translate(0.000000,512.000000) scale(0.100000,-0.100000)"
fill="#000000" stroke="none">
<path d="M2245 4773 c-85 -10 -248 -48 -324 -75 -204 -72 -367 -175 -535 -338
l-118 -115 -122 0 c-119 0 -122 -1 -184 -34 -91 -49 -145 -102 -202 -194 -66
-108 -98 -208 -106 -339 -7 -126 9 -216 59 -314 61 -120 94 -149 257 -224 8
-4 18 -20 22 -36 4 -16 17 -67 28 -114 73 -306 320 -554 627 -631 50 -12 52
-14 77 -73 14 -34 30 -76 35 -93 l10 -33 -869 0 -869 0 6 -38 c12 -78 83 -342
118 -438 188 -510 540 -955 997 -1261 253 -169 616 -318 903 -372 l43 -8 6 51
c20 169 62 901 77 1341 15 440 1 808 -34 841 -6 7 -47 26 -90 43 -181 72 -251
122 -333 237 -83 116 -151 295 -179 472 l-7 43 39 -17 c98 -43 142 -56 203
-61 57 -4 69 -2 100 19 71 48 106 155 116 355 12 214 -19 318 -121 411 -61 56
-150 92 -229 92 -72 0 -72 3 -20 146 25 71 62 161 81 199 81 163 207 321 326
411 73 55 207 122 280 140 l52 12 -45 0 c-25 -1 -58 -3 -75 -5z m-547 -1019
c74 -30 121 -94 124 -165 2 -57 -19 -72 -91 -65 -93 9 -142 61 -149 158 -4 51
-2 64 14 75 24 17 56 17 102 -3z"/>
<path d="M3883 4240 c-13 -5 -23 -12 -23 -15 0 -2 21 -35 46 -72 84 -123 163
-301 204 -462 26 -102 42 -321 33 -455 l-6 -98 24 7 c171 53 287 215 304 425
22 279 -103 539 -310 641 -60 29 -79 34 -159 36 -50 2 -101 -1 -113 -7z"/>
<path d="M3375 3857 c-124 -41 -219 -153 -246 -289 -12 -63 -3 -270 17 -376
15 -83 46 -146 86 -175 98 -73 353 22 496 184 51 59 90 153 103 254 14 108 7
240 -14 282 -24 46 -81 90 -139 109 -69 22 -249 28 -303 11z m180 -106 c74
-34 115 -95 115 -171 0 -45 -18 -60 -74 -60 -104 0 -190 98 -171 196 10 56 58
68 130 35z"/>
<path d="M2410 3004 c-19 -3 -56 -12 -82 -20 -167 -54 -137 -250 55 -375 57
-37 58 -38 32 -45 -31 -8 -123 1 -175 16 -19 5 -68 39 -108 75 -40 36 -77 65
-82 65 -15 0 -12 -41 6 -93 22 -66 84 -131 160 -168 55 -27 76 -32 138 -32 63
0 82 4 141 34 l67 34 70 -34 c60 -30 80 -35 139 -35 127 2 255 90 293 201 18
53 21 93 6 93 -5 0 -41 -28 -80 -63 -77 -70 -111 -85 -216 -94 -87 -7 -100 6
-41 40 53 31 118 101 146 156 14 26 21 59 21 95 0 109 -73 145 -310 151 -80 2
-161 1 -180 -1z"/>
<path d="M3513 2153 l-163 -3 -7 -28 c-16 -55 -8 -747 10 -932 39 -390 117
-993 131 -1007 14 -14 232 88 396 185 305 181 607 472 817 784 174 260 331
648 378 933 3 22 8 48 11 58 5 16 -32 17 -703 15 -389 -1 -781 -4 -870 -5z"/>
</g>
</svg>
